<svg width="25" height="24" viewBox="0 0 25 24" fill="none" xmlns="http://www.w3.org/2000/svg">
<path d="M8.875 14C12.1887 14 14.875 11.3137 14.875 8C14.875 4.68629 12.1887 2 8.875 2C5.56129 2 2.875 4.68629 2.875 8C2.875 11.3137 5.56129 14 8.875 14Z" stroke="#7FAD98" stroke-width="1.5" stroke-linecap="round" stroke-linejoin="round"/>
<path d="M18.9648 10.3701C19.9102 10.7225 20.7513 11.3076 21.4106 12.0713C22.0699 12.835 22.5259 13.7526 22.7366 14.7392C22.9473 15.7258 22.9057 16.7496 22.6159 17.716C22.326 18.6823 21.7972 19.5599 21.0783 20.2677C20.3594 20.9755 19.4736 21.4906 18.5028 21.7653C17.5321 22.0401 16.5077 22.0656 15.5245 21.8396C14.5413 21.6135 13.631 21.1432 12.8777 20.4721C12.1244 19.801 11.5525 18.9508 11.2148 18.0001" stroke="#7FAD98" stroke-width="1.5" stroke-linecap="round" stroke-linejoin="round"/>
<path d="M7.875 6H8.875V10" stroke="#7FAD98" stroke-width="1.5" stroke-linecap="round" stroke-linejoin="round"/>
<path d="M17.5848 13.8799L18.2848 14.5899L15.4648 17.4099" stroke="#7FAD98" stroke-width="1.5" stroke-linecap="round" stroke-linejoin="round"/>
</svg>
