<svg width="24" height="24" viewBox="0 0 24 24" fill="none" xmlns="http://www.w3.org/2000/svg">
<path d="M8 2L9.88 3.88" stroke="#799B44" stroke-width="1.5" stroke-linecap="round" stroke-linejoin="round"/>
<path d="M14.1201 3.88L16.0001 2" stroke="#799B44" stroke-width="1.5" stroke-linecap="round" stroke-linejoin="round"/>
<path d="M9.00007 7.13V6.13C8.98194 5.72474 9.04611 5.32002 9.1887 4.94025C9.33129 4.56047 9.54934 4.21353 9.8297 3.92034C10.1101 3.62716 10.4469 3.39382 10.8199 3.2344C11.193 3.07499 11.5944 2.9928 12.0001 2.9928C12.4057 2.9928 12.8072 3.07499 13.1802 3.2344C13.5532 3.39382 13.8901 3.62716 14.1704 3.92034C14.4508 4.21353 14.6689 4.56047 14.8114 4.94025C14.954 5.32002 15.0182 5.72474 15.0001 6.13V7.13" stroke="#799B44" stroke-width="1.5" stroke-linecap="round" stroke-linejoin="round"/>
<path d="M12 20C8.7 20 6 17.3 6 14V11C6 9.93913 6.42143 8.92172 7.17157 8.17157C7.92172 7.42143 8.93913 7 10 7H14C15.0609 7 16.0783 7.42143 16.8284 8.17157C17.5786 8.92172 18 9.93913 18 11V14C18 17.3 15.3 20 12 20Z" stroke="#799B44" stroke-width="1.5" stroke-linecap="round" stroke-linejoin="round"/>
<path d="M12 20V11" stroke="#799B44" stroke-width="1.5" stroke-linecap="round" stroke-linejoin="round"/>
<path d="M6.53 9C4.6 8.8 3 7.1 3 5" stroke="#799B44" stroke-width="1.5" stroke-linecap="round" stroke-linejoin="round"/>
<path d="M6 13H2" stroke="#799B44" stroke-width="1.5" stroke-linecap="round" stroke-linejoin="round"/>
<path d="M3 21C3 18.9 4.7 17.1 6.8 17" stroke="#799B44" stroke-width="1.5" stroke-linecap="round" stroke-linejoin="round"/>
<path d="M20.9697 5C20.9697 7.1 19.3697 8.8 17.4697 9" stroke="#799B44" stroke-width="1.5" stroke-linecap="round" stroke-linejoin="round"/>
<path d="M22 13H18" stroke="#799B44" stroke-width="1.5" stroke-linecap="round" stroke-linejoin="round"/>
<path d="M17.2002 17C19.3002 17.1 21.0002 18.9 21.0002 21" stroke="#799B44" stroke-width="1.5" stroke-linecap="round" stroke-linejoin="round"/>
</svg>
