<svg width="570" height="157" viewBox="0 0 570 157" fill="none" xmlns="http://www.w3.org/2000/svg">
<path d="M419.708 98.5482C413.03 98.5482 407.119 97.2397 401.975 94.6225C396.831 92.0054 392.815 88.3505 389.927 83.6577C387.129 78.8747 385.73 73.5051 385.73 67.5488C385.73 61.6829 387.129 56.2681 389.927 51.3046C392.815 46.3411 396.786 42.3703 401.839 39.3922C406.893 36.4141 412.624 34.925 419.031 34.925C424.807 34.925 429.906 36.0982 434.328 38.4446C438.75 40.791 442.134 43.9045 444.48 47.7851C446.827 51.5754 448 55.5462 448 59.6975C448 66.4659 445.428 71.4294 440.284 74.588C435.23 77.6564 429.184 79.1905 422.145 79.1905C417.452 79.1905 413.481 78.6039 410.232 77.4307C412.94 81.8528 417.407 84.0638 423.634 84.0638C426.161 84.0638 428.868 83.7479 431.756 83.1162C432.839 82.8455 433.876 82.7101 434.869 82.7101C436.855 82.7101 438.434 83.2065 439.607 84.1992C440.871 85.1919 441.502 86.5456 441.502 88.2602C441.502 91.0578 439.788 93.4945 436.358 95.5701C432.929 97.5555 427.379 98.5482 419.708 98.5482ZM410.638 60.9158C411.45 62.1792 412.533 63.1268 413.887 63.7585C415.331 64.3 416.91 64.5707 418.625 64.5707C420.61 64.5707 422.325 64.1195 423.769 63.2171C425.303 62.3146 426.07 61.1414 426.07 59.6975C426.07 58.0731 425.393 56.6742 424.04 55.5011C422.776 54.3279 420.926 53.7413 418.49 53.7413C416.053 53.7413 414.113 54.5084 412.669 56.0425C411.315 57.4865 410.638 59.1109 410.638 60.9158Z" fill="white"/>
<path d="M364.458 32.8945C360.036 32.8945 356.291 31.3152 353.222 28.1566C350.154 24.9078 348.62 20.9821 348.62 16.3796C348.62 11.8673 350.154 8.03187 353.222 4.87327C356.291 1.62442 360.036 0 364.458 0C368.79 0 372.49 1.62442 375.558 4.87327C378.717 8.03187 380.296 11.8673 380.296 16.3796C380.296 20.9821 378.717 24.9078 375.558 28.1566C372.49 31.3152 368.79 32.8945 364.458 32.8945ZM350.65 121.967C345.687 121.967 341.761 121.019 338.873 119.124C336.076 117.319 334.677 114.657 334.677 111.137C334.677 108.701 335.308 106.625 336.572 104.911C337.745 103.286 339.144 102.068 340.768 101.256C342.393 100.534 343.837 100.173 345.1 100.173C347.447 100.173 349.161 99.6312 350.244 98.5482C351.327 97.375 352.004 95.7506 352.275 93.675C352.545 91.5091 352.681 88.2151 352.681 83.7931L352.545 67.5489C352.545 61.5926 352.816 56.8999 353.358 53.4705C353.989 50.0412 355.163 47.379 356.877 45.4838C358.592 43.5886 361.209 42.6411 364.729 42.6411C368.97 42.6411 372.038 44.0399 373.934 46.8375C375.829 49.5448 377.002 53.29 377.453 58.0731C377.904 62.7658 378.13 69.8501 378.13 79.3259C378.13 87.2675 377.859 93.3591 377.318 97.6007C376.776 101.842 375.513 105.723 373.528 109.242C371.362 113.213 368.248 116.327 364.187 118.583C360.216 120.839 355.704 121.967 350.65 121.967Z" fill="white"/>
<path d="M274.084 117.906C269.662 117.906 266.458 115.65 264.473 111.137C262.487 106.715 261.269 101.662 260.818 95.9762C260.457 90.2907 260.276 82.8003 260.276 73.505C260.276 66.3756 260.547 60.1036 261.089 54.6888C261.72 49.2741 263.119 44.5813 265.285 40.6105C267.451 36.6397 270.745 34.6543 275.167 34.6543C279.769 34.6543 283.109 36.4592 285.184 40.069C287.26 38.5349 289.832 37.3165 292.9 36.4141C296.059 35.4214 299.353 34.925 302.782 34.925C308.558 34.925 313.882 36.369 318.756 39.2568C323.629 42.1447 327.509 46.0252 330.397 50.8985C333.285 55.7718 334.729 61.0963 334.729 66.872C334.729 72.6477 333.285 78.0173 330.397 82.9808C327.509 87.8541 323.629 91.7347 318.756 94.6225C313.882 97.5104 308.558 98.9543 302.782 98.9543C299.262 98.9543 295.969 98.5031 292.9 97.6006C289.832 96.6079 287.215 95.2994 285.049 93.6749C285.049 99.4507 284.868 103.918 284.507 107.076C284.146 110.235 283.154 112.807 281.529 114.792C279.995 116.868 277.513 117.906 274.084 117.906ZM302.105 76.4831C304.452 76.4831 306.482 75.6258 308.197 73.9111C310.002 72.1062 310.904 70.0306 310.904 67.6842C310.904 65.3378 310.002 63.3073 308.197 61.5926C306.482 59.7877 304.452 58.8853 302.105 58.8853C299.759 58.8853 297.683 59.7877 295.878 61.5926C294.164 63.3073 293.306 65.3378 293.306 67.6842C293.306 70.0306 294.164 72.1062 295.878 73.9111C297.683 75.6258 299.759 76.4831 302.105 76.4831Z" fill="white"/>
<path d="M240.29 32.8945C235.868 32.8945 232.123 31.3152 229.055 28.1566C225.986 24.9078 224.452 20.9821 224.452 16.3796C224.452 11.8673 225.986 8.03187 229.055 4.87327C232.123 1.62442 235.868 0 240.29 0C244.622 0 248.322 1.62442 251.39 4.87327C254.549 8.03187 256.128 11.8673 256.128 16.3796C256.128 20.9821 254.549 24.9078 251.39 28.1566C248.322 31.3152 244.622 32.8945 240.29 32.8945ZM240.29 98.5482C236.59 98.5482 233.838 97.5104 232.033 95.4348C230.318 93.2689 229.145 90.0651 228.513 85.8236C227.972 81.4918 227.701 75.3551 227.701 67.4135C227.701 60.7353 228.017 55.4559 228.649 51.5754C229.371 47.6948 230.634 44.807 232.439 42.9118C234.244 41.0166 236.861 40.0691 240.29 40.0691C243.99 40.0691 246.698 41.152 248.412 43.3179C250.217 45.3936 251.39 48.5973 251.932 52.9291C252.564 57.1706 252.88 63.2622 252.88 71.2038C252.88 77.882 252.519 83.1614 251.797 87.0419C251.165 90.9225 249.947 93.8103 248.142 95.7055C246.337 97.6007 243.72 98.5482 240.29 98.5482Z" fill="white"/>
<path d="M217.706 23.9602C217.706 29.9164 215.224 34.2482 210.26 36.9556C205.387 39.5727 197.4 41.152 186.3 41.6935C186.661 46.0253 186.841 51.6205 186.841 58.4792C186.841 68.0452 186.3 75.7161 185.217 81.4918C184.224 87.1773 182.465 91.4188 179.938 94.2164C177.411 96.9238 173.891 98.2775 169.379 98.2775C164.957 98.2775 161.573 96.8336 159.226 93.9457C156.88 91.0578 155.256 86.7712 154.353 81.0857C153.451 75.4002 152.999 67.8647 152.999 58.4792C152.999 52.162 153.135 46.5667 153.405 41.6935C145.915 41.3325 139.869 40.5654 135.266 39.3922C130.754 38.1288 127.415 36.2787 125.249 33.8421C123.083 31.4055 122 28.1115 122 23.9602C122 18.9064 123.715 14.9356 127.144 12.0478C130.573 9.15992 135.717 7.1294 142.576 5.9562C149.435 4.78301 158.414 4.19641 169.514 4.19641C180.705 4.19641 189.774 4.78301 196.723 5.9562C203.672 7.1294 208.907 9.15992 212.426 12.0478C215.946 14.9356 217.706 18.9064 217.706 23.9602Z" fill="white"/>
<path d="M450.65 137.106C451.622 137.106 452.486 137.322 453.242 137.754C453.999 138.171 454.585 138.796 455.002 139.63C455.434 140.448 455.65 141.435 455.65 142.593V150.116H452.409V143.033C452.409 142.014 452.154 141.235 451.645 140.694C451.136 140.139 450.441 139.861 449.561 139.861C448.666 139.861 447.956 140.139 447.432 140.694C446.922 141.235 446.668 142.014 446.668 143.033V150.116H443.427V132.986H446.668V138.889C447.084 138.333 447.64 137.901 448.335 137.592C449.029 137.268 449.801 137.106 450.65 137.106Z" fill="white"/>
<path d="M427.509 143.704C427.509 142.377 427.779 141.219 428.319 140.232C428.859 139.228 429.608 138.457 430.565 137.917C431.521 137.361 432.617 137.083 433.852 137.083C435.441 137.083 436.753 137.485 437.787 138.287C438.837 139.074 439.539 140.185 439.894 141.621H436.398C436.213 141.065 435.897 140.633 435.449 140.324C435.017 140 434.477 139.838 433.829 139.838C432.903 139.838 432.17 140.178 431.629 140.857C431.089 141.52 430.819 142.469 430.819 143.704C430.819 144.923 431.089 145.872 431.629 146.552C432.17 147.215 432.903 147.547 433.829 147.547C435.14 147.547 435.997 146.961 436.398 145.788H439.894C439.539 147.177 438.837 148.28 437.787 149.098C436.738 149.916 435.426 150.325 433.852 150.325C432.617 150.325 431.521 150.055 430.565 149.515C429.608 148.959 428.859 148.187 428.319 147.2C427.779 146.197 427.509 145.031 427.509 143.704Z" fill="white"/>
<path d="M410.662 143.658C410.662 142.361 410.917 141.212 411.426 140.208C411.951 139.205 412.653 138.434 413.533 137.893C414.428 137.353 415.423 137.083 416.519 137.083C417.476 137.083 418.309 137.276 419.019 137.662C419.745 138.048 420.323 138.534 420.755 139.12V137.292H424.02V150.117H420.755V148.241C420.339 148.843 419.76 149.345 419.019 149.746C418.294 150.132 417.453 150.325 416.496 150.325C415.416 150.325 414.428 150.047 413.533 149.492C412.653 148.936 411.951 148.157 411.426 147.153C410.917 146.135 410.662 144.97 410.662 143.658ZM420.755 143.704C420.755 142.917 420.601 142.246 420.292 141.69C419.984 141.119 419.567 140.687 419.042 140.394C418.518 140.085 417.954 139.931 417.352 139.931C416.751 139.931 416.195 140.077 415.686 140.371C415.176 140.664 414.76 141.096 414.435 141.667C414.127 142.223 413.973 142.886 413.973 143.658C413.973 144.429 414.127 145.109 414.435 145.695C414.76 146.266 415.176 146.706 415.686 147.015C416.21 147.323 416.766 147.478 417.352 147.478C417.954 147.478 418.518 147.331 419.042 147.038C419.567 146.729 419.984 146.297 420.292 145.741C420.601 145.17 420.755 144.491 420.755 143.704Z" fill="white"/>
<path d="M401.271 150.325C400.036 150.325 398.925 150.055 397.937 149.515C396.949 148.959 396.17 148.18 395.599 147.177C395.043 146.173 394.766 145.016 394.766 143.704C394.766 142.392 395.051 141.235 395.622 140.232C396.209 139.228 397.003 138.457 398.007 137.917C399.01 137.361 400.129 137.083 401.363 137.083C402.598 137.083 403.717 137.361 404.72 137.917C405.723 138.457 406.51 139.228 407.081 140.232C407.668 141.235 407.961 142.392 407.961 143.704C407.961 145.016 407.66 146.173 407.058 147.177C406.472 148.18 405.669 148.959 404.651 149.515C403.647 150.055 402.521 150.325 401.271 150.325ZM401.271 147.501C401.857 147.501 402.405 147.362 402.914 147.084C403.439 146.791 403.856 146.359 404.164 145.788C404.473 145.217 404.627 144.522 404.627 143.704C404.627 142.485 404.303 141.551 403.655 140.903C403.022 140.239 402.243 139.908 401.317 139.908C400.391 139.908 399.612 140.239 398.979 140.903C398.362 141.551 398.053 142.485 398.053 143.704C398.053 144.923 398.354 145.865 398.956 146.528C399.573 147.177 400.345 147.501 401.271 147.501Z" fill="white"/>
<path d="M375.861 142.014C375.861 140.425 376.216 139.005 376.926 137.755C377.652 136.489 378.632 135.509 379.866 134.815C381.116 134.105 382.513 133.75 384.056 133.75C385.862 133.75 387.444 134.213 388.802 135.139C390.16 136.065 391.109 137.346 391.65 138.982H387.922C387.552 138.21 387.027 137.631 386.348 137.245C385.685 136.86 384.913 136.667 384.033 136.667C383.092 136.667 382.251 136.89 381.51 137.338C380.785 137.77 380.213 138.387 379.797 139.19C379.396 139.992 379.195 140.934 379.195 142.014C379.195 143.079 379.396 144.021 379.797 144.839C380.213 145.641 380.785 146.266 381.51 146.714C382.251 147.146 383.092 147.362 384.033 147.362C384.913 147.362 385.685 147.169 386.348 146.783C387.027 146.382 387.552 145.795 387.922 145.024H391.65C391.109 146.675 390.16 147.964 388.802 148.89C387.459 149.8 385.877 150.256 384.056 150.256C382.513 150.256 381.116 149.908 379.866 149.214C378.632 148.504 377.652 147.524 376.926 146.274C376.216 145.024 375.861 143.604 375.861 142.014Z" fill="white"/>
<path d="M367.07 137.292L359.13 156.182H355.681L358.459 149.793L353.319 137.292H356.954L360.264 146.251L363.621 137.292H367.07Z" fill="white"/>
<path d="M350.442 132.986V150.116H347.201V132.986H350.442Z" fill="white"/>
<path d="M341.244 135.764C340.673 135.764 340.194 135.586 339.808 135.231C339.438 134.861 339.253 134.405 339.253 133.865C339.253 133.325 339.438 132.878 339.808 132.523C340.194 132.152 340.673 131.967 341.244 131.967C341.815 131.967 342.286 132.152 342.656 132.523C343.042 132.878 343.235 133.325 343.235 133.865C343.235 134.405 343.042 134.861 342.656 135.231C342.286 135.586 341.815 135.764 341.244 135.764ZM342.841 137.292V150.117H339.6V137.292H342.841Z" fill="white"/>
<path d="M330.112 137.106C331.686 137.106 332.951 137.592 333.908 138.565C334.881 139.522 335.367 140.864 335.367 142.593V150.117H332.126V143.033C332.126 142.03 331.871 141.266 331.362 140.741C330.852 140.201 330.158 139.931 329.278 139.931C328.399 139.931 327.696 140.201 327.172 140.741C326.662 141.266 326.408 142.03 326.408 143.033V150.117H323.167V143.033C323.167 142.03 322.912 141.266 322.403 140.741C321.893 140.201 321.199 139.931 320.319 139.931C319.424 139.931 318.714 140.201 318.19 140.741C317.68 141.266 317.426 142.03 317.426 143.033V150.117H314.185V137.292H317.426V138.843C317.842 138.302 318.375 137.878 319.023 137.569C319.687 137.261 320.412 137.106 321.199 137.106C322.202 137.106 323.097 137.322 323.884 137.755C324.671 138.171 325.281 138.773 325.713 139.56C326.13 138.819 326.732 138.225 327.519 137.778C328.321 137.33 329.186 137.106 330.112 137.106Z" fill="white"/>
<path d="M296.504 143.658C296.504 142.361 296.759 141.212 297.268 140.208C297.793 139.205 298.495 138.434 299.374 137.893C300.27 137.353 301.265 137.083 302.361 137.083C303.318 137.083 304.151 137.276 304.861 137.662C305.586 138.048 306.165 138.534 306.597 139.12V137.292H309.861V150.117H306.597V148.241C306.181 148.843 305.602 149.345 304.861 149.746C304.136 150.132 303.295 150.325 302.338 150.325C301.257 150.325 300.27 150.047 299.374 149.492C298.495 148.936 297.793 148.157 297.268 147.153C296.759 146.135 296.504 144.97 296.504 143.658ZM306.597 143.704C306.597 142.917 306.443 142.246 306.134 141.69C305.826 141.119 305.409 140.687 304.884 140.394C304.359 140.085 303.796 139.931 303.194 139.931C302.592 139.931 302.037 140.077 301.527 140.371C301.018 140.664 300.601 141.096 300.277 141.667C299.969 142.223 299.814 142.886 299.814 143.658C299.814 144.429 299.969 145.109 300.277 145.695C300.601 146.266 301.018 146.706 301.527 147.015C302.052 147.323 302.608 147.478 303.194 147.478C303.796 147.478 304.359 147.331 304.884 147.038C305.409 146.729 305.826 146.297 306.134 145.741C306.443 145.17 306.597 144.491 306.597 143.704Z" fill="white"/>
<path d="M293.882 133.958V136.574H287.145V140.718H292.308V143.287H287.145V150.116H283.904V133.958H293.882Z" fill="white"/>
<path d="M272.871 132.986V150.116H269.63V132.986H272.871Z" fill="white"/>
<path d="M265.275 137.292V150.117H262.011V148.496C261.594 149.052 261.046 149.492 260.367 149.816C259.703 150.124 258.978 150.279 258.191 150.279C257.188 150.279 256.3 150.07 255.529 149.654C254.757 149.222 254.148 148.596 253.7 147.779C253.268 146.945 253.052 145.957 253.052 144.815V137.292H256.293V144.352C256.293 145.371 256.547 146.158 257.057 146.714C257.566 147.254 258.26 147.524 259.14 147.524C260.035 147.524 260.738 147.254 261.247 146.714C261.756 146.158 262.011 145.371 262.011 144.352V137.292H265.275Z" fill="white"/>
<path d="M249.909 139.954H247.664V150.117H244.376V139.954H242.918V137.291H244.376V136.643C244.376 135.069 244.824 133.912 245.719 133.171C246.614 132.43 247.965 132.083 249.77 132.129V134.861C248.983 134.845 248.435 134.977 248.127 135.254C247.818 135.532 247.664 136.034 247.664 136.759V137.291H249.909V139.954Z" fill="white"/>
<path d="M226.35 143.658C226.35 142.361 226.604 141.212 227.114 140.208C227.638 139.205 228.348 138.434 229.243 137.893C230.138 137.353 231.134 137.083 232.23 137.083C233.063 137.083 233.858 137.268 234.614 137.639C235.37 137.994 235.972 138.472 236.42 139.074V132.986H239.707V150.116H236.42V148.218C236.019 148.851 235.455 149.36 234.73 149.746C234.005 150.132 233.163 150.325 232.207 150.325C231.126 150.325 230.138 150.047 229.243 149.491C228.348 148.936 227.638 148.156 227.114 147.153C226.604 146.135 226.35 144.969 226.35 143.658ZM236.443 143.704C236.443 142.917 236.289 142.246 235.98 141.69C235.671 141.119 235.255 140.687 234.73 140.394C234.205 140.085 233.642 139.931 233.04 139.931C232.438 139.931 231.882 140.077 231.373 140.37C230.864 140.664 230.447 141.096 230.123 141.667C229.814 142.222 229.66 142.886 229.66 143.658C229.66 144.429 229.814 145.108 230.123 145.695C230.447 146.266 230.864 146.706 231.373 147.014C231.898 147.323 232.453 147.477 233.04 147.477C233.642 147.477 234.205 147.331 234.73 147.038C235.255 146.729 235.671 146.297 235.98 145.741C236.289 145.17 236.443 144.491 236.443 143.704Z" fill="white"/>
<path d="M217.829 137.106C219.357 137.106 220.591 137.592 221.533 138.565C222.474 139.522 222.945 140.864 222.945 142.593V150.117H219.704V143.033C219.704 142.014 219.449 141.235 218.94 140.695C218.431 140.139 217.736 139.861 216.856 139.861C215.961 139.861 215.251 140.139 214.727 140.695C214.217 141.235 213.963 142.014 213.963 143.033V150.117H210.722V137.292H213.963V138.889C214.395 138.333 214.943 137.901 215.606 137.592C216.285 137.268 217.026 137.106 217.829 137.106Z" fill="white"/>
<path d="M204.764 135.764C204.193 135.764 203.715 135.586 203.329 135.231C202.959 134.861 202.773 134.405 202.773 133.865C202.773 133.325 202.959 132.878 203.329 132.523C203.715 132.152 204.193 131.967 204.764 131.967C205.335 131.967 205.806 132.152 206.176 132.523C206.562 132.878 206.755 133.325 206.755 133.865C206.755 134.405 206.562 134.861 206.176 135.231C205.806 135.586 205.335 135.764 204.764 135.764ZM206.362 137.292V150.117H203.121V137.292H206.362Z" fill="white"/>
<path d="M198.758 133.958V150.116H195.517V139.606L191.188 150.116H188.734L184.382 139.606V150.116H181.141V133.958H184.821L189.961 145.973L195.1 133.958H198.758Z" fill="white"/>
<path d="M167.192 139.282C167.609 138.603 168.149 138.071 168.813 137.685C169.492 137.299 170.263 137.106 171.128 137.106V140.509H170.271C169.252 140.509 168.481 140.749 167.956 141.227C167.447 141.705 167.192 142.539 167.192 143.727V150.117H163.951V137.292H167.192V139.282Z" fill="white"/>
<path d="M159.596 137.292V150.117H156.332V148.496C155.915 149.052 155.367 149.492 154.688 149.816C154.025 150.124 153.299 150.279 152.512 150.279C151.509 150.279 150.622 150.07 149.85 149.654C149.078 149.222 148.469 148.596 148.021 147.779C147.589 146.945 147.373 145.957 147.373 144.815V137.292H150.614V144.352C150.614 145.371 150.869 146.158 151.378 146.714C151.887 147.254 152.582 147.524 153.461 147.524C154.357 147.524 155.059 147.254 155.568 146.714C156.077 146.158 156.332 145.371 156.332 144.352V137.292H159.596Z" fill="white"/>
<path d="M137.263 150.325C136.028 150.325 134.917 150.055 133.929 149.515C132.942 148.959 132.162 148.18 131.591 147.177C131.036 146.173 130.758 145.016 130.758 143.704C130.758 142.392 131.043 141.235 131.614 140.232C132.201 139.228 132.996 138.457 133.999 137.917C135.002 137.361 136.121 137.083 137.356 137.083C138.59 137.083 139.709 137.361 140.712 137.917C141.715 138.457 142.502 139.228 143.074 140.232C143.66 141.235 143.953 142.392 143.953 143.704C143.953 145.016 143.652 146.173 143.05 147.177C142.464 148.18 141.661 148.959 140.643 149.515C139.64 150.055 138.513 150.325 137.263 150.325ZM137.263 147.501C137.849 147.501 138.397 147.362 138.907 147.084C139.431 146.791 139.848 146.359 140.157 145.788C140.465 145.217 140.62 144.522 140.62 143.704C140.62 142.485 140.296 141.551 139.647 140.903C139.015 140.239 138.235 139.908 137.309 139.908C136.383 139.908 135.604 140.239 134.971 140.903C134.354 141.551 134.045 142.485 134.045 143.704C134.045 144.923 134.346 145.865 134.948 146.528C135.565 147.177 136.337 147.501 137.263 147.501Z" fill="white"/>
<path d="M128.541 133.958L123.078 144.491V150.116H119.837V144.491L114.351 133.958H118.008L121.481 141.343L124.93 133.958H128.541Z" fill="white"/>
</svg>
